<?xml version="1.0" standalone="no"?>
<!DOCTYPE svg PUBLIC "-//W3C//DTD SVG 20010904//EN"
 "http://www.w3.org/TR/2001/REC-SVG-20010904/DTD/svg10.dtd">
<svg version="1.0" xmlns="http://www.w3.org/2000/svg"
 width="312.000000pt" height="404.000000pt" viewBox="0 0 312.000000 404.000000"
 preserveAspectRatio="xMidYMid meet">

<g transform="translate(0.000000,404.000000) scale(0.100000,-0.100000)"
fill="#fff" stroke="none">
<path d="M553 4025 c-86 -19 -153 -57 -218 -126 -64 -67 -99 -137 -115 -229
-8 -45 -10 -358 -8 -1025 4 -1077 -2 -1003 79 -1124 46 -69 122 -129 208 -163
l56 -23 969 -3 c636 -2 988 1 1024 8 179 33 320 174 352 352 7 37 10 391 8
1030 l-3 973 -23 56 c-34 86 -94 162 -163 208 -121 81 -45 76 -1134 78 -790 1
-982 -1 -1032 -12z m1155 -505 c275 -24 413 -96 485 -248 27 -57 32 -81 35
-164 7 -159 -44 -267 -156 -335 l-53 -31 55 -25 c144 -66 226 -207 226 -392 0
-244 -120 -388 -381 -456 -79 -21 -109 -23 -551 -26 l-468 -4 0 845 0 846 348
0 c191 0 398 -5 460 -10z"/>
<path d="M1340 3050 l0 -170 151 0 c87 0 168 5 191 12 82 24 125 117 98 213
-26 94 -78 115 -285 115 l-155 0 0 -170z"/>
<path d="M1340 2355 l0 -215 150 0 c215 0 284 20 336 97 42 63 39 191 -8 256
-12 16 -44 40 -72 53 -48 22 -63 24 -228 24 l-178 0 0 -215z"/>
<path d="M52 623 l-52 -4 0 -238 0 -238 59 -7 c119 -14 216 9 261 60 51 59 36
157 -30 186 -37 16 -37 21 -4 36 14 7 32 28 40 47 23 56 2 110 -56 140 -29 15
-140 24 -218 18z m160 -90 c25 -23 23 -68 -4 -87 -12 -9 -39 -16 -60 -16 l-38
0 0 60 0 60 42 0 c24 0 49 -7 60 -17z m6 -199 c16 -10 22 -24 22 -49 0 -48
-31 -75 -87 -75 l-43 0 0 76 0 77 43 -7 c23 -4 52 -14 65 -22z"/>
<path d="M1320 571 c-20 -5 -26 -14 -28 -44 -3 -29 -7 -37 -23 -37 -16 0 -19
-7 -19 -40 0 -32 4 -40 19 -40 16 0 19 -11 23 -102 2 -57 10 -114 17 -126 18
-33 75 -55 122 -47 38 7 39 8 39 46 0 37 -2 39 -30 39 -39 0 -50 27 -50 121
l0 69 40 0 40 0 0 40 0 40 -40 0 -40 0 0 45 c0 49 -9 53 -70 36z"/>
<path d="M1890 571 c-20 -5 -26 -14 -28 -44 -3 -29 -7 -37 -23 -37 -16 0 -19
-7 -19 -40 0 -32 4 -40 19 -40 16 0 19 -11 23 -102 2 -57 10 -114 17 -126 18
-33 75 -55 122 -47 38 7 39 8 39 46 0 37 -2 39 -30 39 -39 0 -50 27 -50 121
l0 69 40 0 40 0 0 40 0 40 -40 0 -40 0 0 45 c0 49 -9 53 -70 36z"/>
<path d="M553 490 c-155 -37 -182 -263 -39 -337 44 -23 135 -21 177 3 98 58
119 206 40 285 -20 20 -54 42 -76 48 -45 12 -56 12 -102 1z m88 -89 c25 -26
29 -37 29 -86 0 -49 -4 -60 -29 -86 -37 -36 -45 -36 -82 0 -25 26 -29 37 -29
86 0 49 4 60 29 86 16 16 35 29 41 29 6 0 25 -13 41 -29z"/>
<path d="M973 490 c-155 -37 -182 -263 -39 -337 44 -23 135 -21 177 3 98 58
119 206 40 285 -20 20 -54 42 -76 48 -45 12 -56 12 -102 1z m88 -89 c25 -26
29 -37 29 -86 0 -49 -4 -60 -29 -86 -37 -36 -45 -36 -82 0 -25 26 -29 37 -29
86 0 49 4 60 29 86 16 16 35 29 41 29 6 0 25 -13 41 -29z"/>
<path d="M1619 491 c-76 -24 -109 -75 -88 -138 9 -29 22 -40 77 -66 75 -37 89
-61 45 -78 -21 -8 -39 -7 -75 4 l-47 15 -7 -35 c-8 -42 0 -49 67 -58 55 -8
125 9 155 37 29 27 37 72 19 114 -12 28 -27 41 -80 65 -70 31 -81 52 -40 71
19 8 35 8 62 0 20 -6 38 -10 39 -9 1 1 5 16 8 33 5 23 3 33 -7 37 -29 11 -103
16 -128 8z"/>
<path d="M2270 489 c-14 -6 -35 -22 -47 -37 l-22 -27 -1 33 c0 31 -1 32 -45
32 l-45 0 0 -175 0 -175 55 0 55 0 0 108 c0 100 2 110 23 130 13 12 35 22 50
22 26 0 27 2 27 50 0 53 -5 57 -50 39z"/>
<path d="M2446 490 c-59 -11 -69 -19 -60 -54 5 -23 11 -26 28 -21 11 4 41 9
66 12 37 4 48 1 63 -15 25 -28 14 -42 -34 -42 -48 0 -99 -20 -127 -50 -49 -53
-31 -149 32 -175 47 -20 64 -19 111 5 34 17 40 18 48 5 5 -10 23 -15 50 -15
l42 0 -3 132 c-2 73 -9 144 -15 157 -27 54 -102 77 -201 61z m114 -212 c0 -39
-7 -51 -37 -67 -41 -21 -84 20 -63 59 14 25 39 39 73 40 24 0 27 -4 27 -32z"/>
<path d="M2916 486 c-21 -8 -43 -19 -49 -25 -17 -17 -27 -13 -27 9 0 17 -7 20
-45 20 l-45 0 0 -245 0 -245 55 0 55 0 0 84 0 84 38 -20 c68 -35 152 -7 193
66 30 53 32 158 3 207 -38 65 -107 90 -178 65z m65 -95 c61 -61 24 -181 -55
-181 -7 0 -25 9 -40 21 -23 18 -26 28 -26 80 0 50 4 64 25 84 32 33 60 31 96
-4z"/>
</g>
</svg>
