<?xml version="1.0" standalone="no"?>
<!DOCTYPE svg PUBLIC "-//W3C//DTD SVG 20010904//EN"
 "http://www.w3.org/TR/2001/REC-SVG-20010904/DTD/svg10.dtd">
<svg version="1.0" xmlns="http://www.w3.org/2000/svg"
 width="900.000000pt" height="512.000000pt" viewBox="0 0 900.000000 512.000000"
 preserveAspectRatio="xMidYMid meet">

<g transform="translate(0.000000,512.000000) scale(0.100000,-0.100000)"
fill="#fff" stroke="none">
<path d="M3183 4124 c-446 -65 -774 -258 -985 -580 -113 -174 -175 -332 -221
-574 -19 -101 -22 -149 -22 -400 0 -254 3 -298 23 -407 45 -245 137 -461 274
-645 277 -370 597 -517 1188 -544 238 -11 480 17 665 77 394 126 676 445 805
911 l19 67 -112 35 c-62 19 -181 55 -264 80 -84 25 -221 67 -304 92 -83 25
-152 44 -153 42 -1 -2 -9 -34 -19 -71 -40 -159 -119 -308 -206 -390 -97 -91
-207 -127 -382 -127 -177 0 -287 39 -390 136 -71 69 -108 131 -142 239 -45
146 -52 212 -52 500 1 243 3 279 23 365 59 254 214 429 428 485 88 23 246 20
330 -6 169 -52 292 -172 354 -346 12 -34 27 -60 34 -58 6 2 187 43 401 90 215
47 398 88 407 91 15 5 14 13 -12 83 -120 328 -338 589 -597 720 -135 67 -289
112 -473 137 -133 17 -492 17 -617 -2z"/>
<path d="M5190 3000 l0 -240 -240 0 -240 0 2 -202 3 -203 238 -3 237 -2 0
-235 0 -235 205 0 205 0 0 235 0 235 285 0 285 0 0 -235 0 -235 205 0 205 0 0
235 0 235 240 0 240 0 0 205 0 205 -240 0 -240 0 0 240 0 240 -205 0 -205 0 0
-240 0 -240 -285 0 -285 0 0 240 0 240 -205 0 -205 0 0 -240z"/>
</g>
</svg>
