<?xml version="1.0" standalone="no"?>
<!DOCTYPE svg PUBLIC "-//W3C//DTD SVG 20010904//EN"
 "http://www.w3.org/TR/2001/REC-SVG-20010904/DTD/svg10.dtd">
<svg version="1.0" xmlns="http://www.w3.org/2000/svg"
 width="348.000000pt" height="348.000000pt" viewBox="0 0 348.000000 348.000000"
 preserveAspectRatio="xMidYMid meet">

<g transform="translate(0.000000,348.000000) scale(0.100000,-0.100000)"
fill="#fff" stroke="none">
<path d="M607 2793 c30 -335 141 -1584 169 -1903 9 -102 19 -188 23 -191 10
-11 916 -259 942 -259 13 1 231 58 484 129 l460 127 22 240 c12 131 45 498 73
814 28 316 66 736 83 933 l32 357 -1155 0 -1156 0 23 -247z m1803 -290 c0 -21
-3 -75 -7 -120 l-6 -82 -331 -147 c-182 -81 -332 -147 -333 -148 -1 0 1 -13 4
-28 l5 -28 312 0 312 0 -13 -142 c-7 -79 -17 -195 -23 -258 -5 -63 -15 -182
-22 -263 -9 -116 -15 -150 -27 -156 -9 -5 -134 -41 -278 -81 l-263 -72 -262
72 c-145 40 -270 76 -279 80 -12 7 -18 42 -27 157 -7 81 -15 169 -19 196 l-6
47 116 0 116 0 5 -57 c4 -32 10 -83 14 -113 l7 -55 168 -44 168 -44 159 43
c87 24 164 46 170 50 9 5 17 77 42 385 l3 30 -492 3 -491 2 -7 78 c-4 42 -8
95 -9 117 l-1 40 340 146 c187 80 339 149 338 152 -2 4 -3 16 -3 27 0 20 -7
20 -354 20 l-354 0 -7 78 c-3 42 -8 94 -11 115 l-6 37 676 0 676 0 0 -37z"/>
</g>
</svg>
