<?xml version="1.0" standalone="no"?>
<!DOCTYPE svg PUBLIC "-//W3C//DTD SVG 20010904//EN"
 "http://www.w3.org/TR/2001/REC-SVG-20010904/DTD/svg10.dtd">
<svg version="1.0" xmlns="http://www.w3.org/2000/svg"
 width="420.000000pt" height="420.000000pt" viewBox="0 0 420.000000 420.000000"
 preserveAspectRatio="xMidYMid meet">

<g transform="translate(0.000000,420.000000) scale(0.100000,-0.100000)"
fill="#fff" stroke="none">
<path d="M406 4009 c-22 -17 -26 -28 -26 -71 0 -28 65 -781 145 -1674 80 -892
145 -1629 145 -1638 0 -8 10 -26 23 -41 19 -22 114 -52 704 -220 376 -107 692
-195 703 -195 11 0 327 88 703 195 590 168 685 198 705 220 12 15 22 32 22 40
0 8 65 745 145 1638 80 894 145 1647 145 1675 0 43 -4 54 -26 71 l-27 21
-1667 0 -1667 0 -27 -21z m3240 -191 c-4 -24 -67 -734 -142 -1578 -75 -844
-137 -1536 -139 -1538 -1 -1 -286 -84 -632 -183 l-631 -180 -633 181 c-348 99
-634 182 -635 183 -1 1 -63 695 -138 1542 -75 847 -139 1557 -142 1578 l-6 37
1552 0 1551 0 -5 -42z"/>
<path d="M1543 3336 l-28 -24 -5 -799 -5 -799 -245 68 c-164 45 -254 66 -273
62 -17 -4 -36 -18 -48 -37 -17 -29 -19 -52 -19 -243 0 -219 7 -266 41 -285 31
-16 951 -269 980 -269 15 0 36 11 50 26 l24 26 0 1125 0 1125 -28 24 c-28 24
-31 24 -222 24 -191 0 -194 0 -222 -24z m307 -1141 c0 -791 -3 -993 -12 -990
-21 7 -737 205 -743 205 -3 0 -5 54 -5 120 0 66 3 120 8 120 4 0 112 -29 240
-65 128 -36 247 -65 263 -65 18 0 39 9 54 25 l25 24 0 811 0 810 85 0 85 0 0
-995z"/>
<path d="M2213 3336 l-28 -24 -3 -724 c-2 -510 0 -734 8 -761 8 -29 19 -42 43
-52 28 -12 59 -8 280 30 l247 42 0 -73 0 -73 -52 -14 c-29 -9 -147 -41 -263
-72 -158 -43 -216 -63 -235 -81 l-25 -24 0 -224 c0 -224 0 -224 24 -250 14
-15 35 -26 51 -26 14 0 199 47 411 105 518 142 487 132 504 158 11 17 27 162
61 560 44 507 46 538 30 562 -30 45 -47 46 -297 10 -129 -19 -244 -35 -256
-35 l-23 0 0 245 0 245 291 0 c179 0 298 4 309 10 33 18 38 40 55 229 18 200
15 229 -31 250 -18 8 -181 11 -549 11 l-524 0 -28 -24z m967 -185 c0 -21 -3
-59 -6 -85 l-7 -46 -299 0 -299 0 -24 -25 -25 -24 0 -363 c0 -393 1 -397 55
-418 14 -5 107 4 269 27 136 19 250 33 253 30 8 -8 -65 -849 -75 -858 -4 -3
-117 -36 -252 -73 -135 -36 -285 -77 -333 -91 l-88 -24 3 107 3 107 260 72
c212 58 264 76 281 96 17 20 22 44 28 123 4 55 9 138 13 186 6 83 5 87 -20
112 -34 34 -46 34 -322 -14 -126 -22 -233 -40 -237 -40 -5 0 -8 279 -8 620 l0
620 415 0 415 0 0 -39z"/>
</g>
</svg>
