<?xml version="1.0" standalone="no"?>
<!DOCTYPE svg PUBLIC "-//W3C//DTD SVG 20010904//EN"
 "http://www.w3.org/TR/2001/REC-SVG-20010904/DTD/svg10.dtd">
<svg version="1.0" xmlns="http://www.w3.org/2000/svg"
 width="1025.000000pt" height="1024.000000pt" viewBox="0 0 1025.000000 1024.000000"
 preserveAspectRatio="xMidYMid meet">

<g transform="translate(0.000000,1024.000000) scale(0.100000,-0.100000)"
fill="#fff" stroke="none">
<path d="M4845 8079 c-1432 -48 -2741 -458 -3665 -1148 -1170 -874 -1496
-2082 -850 -3151 556 -921 1790 -1640 3300 -1924 534 -100 885 -131 1495 -131
517 0 728 14 1165 76 1598 227 2951 944 3576 1894 556 845 500 1805 -153 2625
-202 252 -516 534 -835 748 -876 588 -2137 963 -3378 1007 -340 11 -431 12
-655 4z m290 -921 c-3 -13 -34 -194 -70 -403 -36 -209 -68 -393 -71 -408 l-6
-28 389 1 c220 0 414 -4 447 -9 128 -22 258 -82 335 -154 18 -18 51 -59 73
-92 123 -188 116 -367 -58 -1360 -29 -170 -72 -400 -94 -510 -22 -110 -40
-203 -40 -207 0 -5 -130 -8 -290 -8 -159 0 -290 3 -290 8 0 4 18 106 39 227
79 440 188 1163 198 1315 7 112 -12 185 -62 228 -19 17 -49 33 -67 36 -62 9
-666 17 -672 8 -2 -4 -74 -416 -158 -915 l-153 -907 -287 0 c-224 0 -288 3
-288 13 0 6 120 726 267 1600 l268 1587 298 0 297 0 -5 -22z m-1562 -871 c107
-38 164 -68 238 -127 227 -180 335 -492 300 -859 -32 -335 -140 -645 -296
-853 -172 -227 -381 -366 -665 -439 -79 -21 -113 -23 -476 -26 l-391 -4 -74
-411 c-41 -225 -77 -414 -80 -419 -3 -6 -123 -8 -295 -7 l-289 3 262 1580
c144 869 262 1584 262 1588 1 4 322 6 714 5 l712 -3 78 -28z m4535 17 c296
-61 514 -283 587 -599 39 -168 36 -408 -10 -628 -111 -537 -392 -893 -821
-1036 -161 -54 -230 -61 -620 -61 l-352 0 -6 -27 c-9 -46 -146 -801 -146 -807
0 -3 -133 -6 -295 -6 l-295 0 5 23 c3 12 120 717 260 1567 140 850 257 1555
260 1568 l5 22 676 0 c578 0 686 -2 752 -16z"/>
<path d="M2575 5819 c-3 -8 -52 -302 -110 -654 -58 -352 -107 -650 -110 -662
l-5 -23 267 0 c306 0 365 9 483 67 93 45 209 158 263 254 82 148 128 350 131
569 1 114 -2 146 -21 206 -38 119 -95 179 -214 226 -50 20 -78 22 -366 26
-259 4 -314 2 -318 -9z"/>
<path d="M7180 5826 c0 -9 -209 -1283 -216 -1318 l-6 -28 269 0 c307 0 366 9
483 67 115 58 213 161 278 294 79 164 112 321 114 545 0 108 -3 139 -21 193
-40 116 -100 179 -212 223 -50 20 -78 22 -371 26 -175 2 -318 2 -318 -2z"/>
</g>
</svg>
