<?xml version="1.0" standalone="no"?>
<!DOCTYPE svg PUBLIC "-//W3C//DTD SVG 20010904//EN"
 "http://www.w3.org/TR/2001/REC-SVG-20010904/DTD/svg10.dtd">
<svg version="1.0" xmlns="http://www.w3.org/2000/svg"
 width="512.000000pt" height="512.000000pt" viewBox="0 0 512.000000 512.000000"
 preserveAspectRatio="xMidYMid meet">

<g transform="translate(0.000000,512.000000) scale(0.100000,-0.100000)"
fill="#fff" stroke="none">
<path d="M2143 4469 c-254 -24 -490 -93 -828 -243 -617 -272 -1088 -671 -1254
-1062 -40 -93 -65 -223 -57 -290 17 -147 115 -312 283 -474 120 -117 187 -170
443 -350 196 -138 269 -192 270 -201 0 -4 -42 -28 -92 -55 -329 -169 -602
-390 -677 -548 -96 -201 -77 -412 49 -530 58 -54 120 -70 265 -70 214 1 412
90 571 256 118 122 187 259 219 433 23 117 16 290 -15 390 -11 39 -22 76 -23
84 -1 9 49 44 133 92 74 43 136 76 138 74 2 -1 -4 -27 -13 -57 -47 -158 -57
-361 -25 -495 61 -253 188 -366 331 -293 63 32 114 115 216 345 l44 100 -5
-72 c-20 -247 80 -383 215 -294 24 16 61 51 81 78 80 105 300 536 424 830 38
89 71 160 73 157 3 -3 16 -48 28 -102 13 -53 47 -148 75 -210 l51 -112 -29
-42 c-16 -24 -87 -112 -158 -198 -71 -85 -142 -175 -158 -200 -104 -163 114
-212 379 -85 110 54 182 120 221 202 24 51 27 70 27 158 0 82 -5 113 -26 170
l-25 70 46 70 c71 107 137 219 201 339 l57 109 11 -44 c30 -123 66 -229 97
-292 l36 -70 -48 -41 c-106 -91 -209 -246 -239 -363 -19 -73 -19 -107 1 -149
31 -66 98 -80 206 -43 147 50 286 155 342 259 45 83 46 207 1 321 -8 21 42 42
156 65 116 23 362 15 469 -16 169 -48 294 -141 347 -256 65 -142 34 -258 -93
-354 -84 -63 -56 -94 42 -44 64 33 138 107 164 168 64 143 13 342 -123 478
-140 141 -323 208 -559 208 -159 -1 -298 -30 -451 -95 -14 -6 -25 10 -66 96
-78 162 -84 292 -26 478 30 93 27 102 -32 122 -44 14 -168 6 -218 -16 -41 -16
-53 -40 -80 -155 -20 -82 -134 -315 -250 -510 l-69 -115 -27 60 c-62 135 -69
281 -21 440 39 126 36 133 -59 149 -46 8 -177 -10 -204 -28 -15 -10 -28 -40
-43 -96 -35 -130 -445 -1042 -497 -1105 -15 -19 -16 -14 -12 75 4 73 19 150
66 334 33 131 61 249 61 261 0 53 -95 93 -145 61 l-25 -17 6 55 c14 115 -13
201 -77 249 -34 25 -127 26 -189 1 -83 -32 -206 -122 -287 -209 -77 -83 -82
-87 -322 -219 l-245 -134 -90 80 c-50 45 -157 132 -237 195 -302 235 -403 344
-455 492 -43 121 -31 265 35 406 119 254 382 478 874 744 199 108 468 209 677
255 440 96 828 25 919 -170 84 -177 -12 -430 -248 -656 -255 -245 -605 -392
-966 -405 -210 -8 -329 27 -439 126 -47 42 -60 50 -72 40 -19 -15 -17 -35 5
-85 46 -100 206 -207 361 -240 100 -22 333 -22 465 0 409 67 686 208 924 471
260 286 345 662 209 917 -133 250 -549 392 -1015 347z m35 -2179 c9 -102 -247
-791 -317 -855 -31 -28 -54 -15 -73 40 -22 65 -23 230 -2 333 52 255 239 530
354 520 32 -3 35 -6 38 -38z m1646 -403 c8 -55 -8 -129 -40 -185 -25 -43 -110
-108 -149 -114 -32 -5 -23 50 23 145 40 84 125 197 147 197 7 0 16 -19 19 -43z
m-2680 -322 c1 -157 -21 -237 -94 -349 -83 -125 -197 -219 -320 -263 -202 -71
-292 21 -224 230 50 151 221 315 519 497 98 59 100 60 109 38 6 -13 10 -81 10
-153z m1990 108 c-15 -83 -84 -175 -173 -232 -80 -52 -90 -39 -27 32 31 34 89
101 128 150 39 48 72 87 75 87 2 0 1 -17 -3 -37z"/>
</g>
</svg>
