<?xml version="1.0" standalone="no"?>
<!DOCTYPE svg PUBLIC "-//W3C//DTD SVG 20010904//EN"
 "http://www.w3.org/TR/2001/REC-SVG-20010904/DTD/svg10.dtd">
<svg version="1.0" xmlns="http://www.w3.org/2000/svg"
 width="64.000000pt" height="64.000000pt" viewBox="0 0 64.000000 64.000000"
 preserveAspectRatio="xMidYMid meet">

<g transform="translate(0.000000,64.000000) scale(0.100000,-0.100000)"
fill="#fff" stroke="none">
<path d="M263 624 c-68 -34 -92 -118 -52 -183 11 -18 19 -34 17 -35 -2 -1 -16
-10 -32 -20 -21 -13 -43 -17 -90 -14 l-61 3 -3 -36 c-2 -21 -12 -45 -23 -54
-26 -24 -25 -84 1 -118 11 -14 20 -39 20 -55 0 -29 3 -31 48 -37 79 -10 132
-25 183 -51 l49 -24 49 24 c51 26 104 41 184 51 44 6 47 8 47 37 0 16 9 41 20
55 26 34 27 94 1 118 -11 9 -21 33 -23 54 l-3 36 -61 -3 c-47 -3 -69 1 -90 14
-16 10 -30 19 -32 20 -2 1 6 17 17 35 40 66 15 150 -53 183 -43 20 -72 20
-113 0z m119 -51 c49 -47 35 -123 -28 -149 -92 -39 -167 75 -97 148 36 38 86
38 125 1z m29 -210 c6 -6 -10 -18 -41 -33 l-50 -23 -50 23 c-50 23 -53 33 -15
43 30 8 145 1 156 -10z m-262 -33 c28 -5 74 -19 101 -31 l50 -21 0 -109 c0
-60 -1 -109 -2 -109 -2 0 -27 9 -55 20 -29 11 -77 23 -108 26 -48 6 -55 9 -55
29 0 12 7 28 15 35 20 17 20 93 0 110 -16 13 -21 60 -6 60 4 0 31 -4 60 -10z
m411 -14 c0 -13 -7 -29 -15 -36 -9 -7 -15 -29 -15 -55 0 -26 6 -48 15 -55 8
-7 15 -23 15 -35 0 -20 -7 -23 -55 -29 -31 -3 -79 -15 -108 -26 -28 -11 -53
-20 -54 -20 -2 0 -3 49 -3 109 l0 109 51 21 c47 21 111 37 152 40 12 1 17 -6
17 -23z m-490 -91 c0 -24 -5 -35 -15 -35 -10 0 -15 11 -15 35 0 24 5 35 15 35
10 0 15 -11 15 -35z m530 0 c0 -24 -5 -35 -15 -35 -10 0 -15 11 -15 35 0 24 5
35 15 35 10 0 15 -11 15 -35z"/>
</g>
</svg>
