<?xml version="1.0" standalone="no"?>
<!DOCTYPE svg PUBLIC "-//W3C//DTD SVG 20010904//EN"
 "http://www.w3.org/TR/2001/REC-SVG-20010904/DTD/svg10.dtd">
<svg version="1.0" xmlns="http://www.w3.org/2000/svg"
 width="64.000000pt" height="64.000000pt" viewBox="0 0 64.000000 64.000000"
 preserveAspectRatio="xMidYMid meet">

<g transform="translate(0.000000,64.000000) scale(0.100000,-0.100000)"
fill="#fff" stroke="none">
<path d="M369 551 c-35 -35 -38 -77 -9 -114 11 -14 20 -37 20 -51 0 -25 3 -26
50 -26 47 0 50 1 50 26 0 14 9 37 20 51 11 14 20 39 20 55 0 41 -48 88 -90 88
-22 0 -41 -9 -61 -29z m106 -16 c30 -30 31 -48 4 -91 -27 -45 -66 -46 -97 -4
-30 39 -28 74 4 99 35 27 59 26 89 -4z m-27 -152 c-10 -2 -26 -2 -35 0 -10 3
-2 5 17 5 19 0 27 -2 18 -5z"/>
<path d="M405 461 c-8 -14 19 -25 40 -17 8 3 15 11 15 17 0 8 -4 8 -13 0 -10
-7 -17 -7 -24 0 -8 8 -13 8 -18 0z"/>
<path d="M270 542 c0 -8 43 -32 55 -32 15 0 1 19 -20 28 -31 14 -35 15 -35 4z"/>
<path d="M553 538 c-20 -10 -32 -28 -18 -28 12 0 55 24 55 32 0 10 -9 9 -37
-4z"/>
<path d="M114 473 c4 -16 16 -40 26 -55 26 -36 25 -52 -5 -82 -14 -14 -25 -32
-25 -39 0 -8 -11 -18 -24 -21 -48 -12 -45 -83 4 -92 19 -4 30 -14 34 -29 8
-33 70 -83 111 -91 19 -3 51 -3 70 0 41 8 103 58 111 91 4 15 15 25 34 29 49
9 52 80 5 92 -13 3 -27 14 -30 24 -4 13 -18 20 -43 22 -34 3 -37 5 -34 31 2
15 -1 28 -7 28 -6 1 -15 3 -21 4 -5 1 -14 3 -20 4 -5 0 -10 8 -10 16 0 9 -9
15 -24 15 -14 0 -33 11 -44 25 -19 24 -77 55 -103 55 -7 0 -9 -10 -5 -27z m66
-17 c0 -2 -8 -10 -17 -17 -16 -13 -17 -12 -4 4 13 16 21 21 21 13z m48 -52
c-2 -1 -15 0 -31 3 -22 4 -25 8 -16 19 10 12 15 12 30 -2 11 -10 18 -18 17
-20z m53 -25 c11 -11 27 -18 35 -15 10 4 13 -2 12 -19 -3 -31 -5 -31 -34 0
-13 14 -34 25 -47 25 -13 0 -34 -11 -47 -25 -13 -14 -30 -25 -39 -25 -13 0
-13 2 1 13 9 6 18 21 20 32 3 15 10 19 30 17 14 -2 29 2 33 7 9 15 12 14 36
-10z m-5 -44 c18 -13 16 -14 -23 -15 -41 0 -57 13 -30 23 21 9 33 7 53 -8z
m134 -45 c0 -6 -53 -10 -140 -10 -87 0 -140 4 -140 10 0 6 53 10 140 10 87 0
140 -4 140 -10z m-300 -60 c0 -20 -5 -30 -15 -30 -18 0 -30 24 -21 45 10 28
36 17 36 -15z m300 -2 c0 -42 -28 -96 -61 -121 -40 -29 -107 -33 -147 -8 -43
27 -72 77 -72 124 l0 37 140 0 140 0 0 -32z m55 2 c0 -16 -6 -26 -17 -28 -14
-3 -18 3 -18 28 0 25 4 31 18 28 11 -2 17 -12 17 -28z"/>
<path d="M175 234 c-20 -20 -11 -32 10 -14 12 10 18 10 30 0 12 -10 15 -10 15
3 0 8 -7 18 -16 21 -21 8 -20 8 -39 -10z"/>
<path d="M313 243 c-15 -5 -18 -33 -4 -33 5 0 11 6 14 13 3 9 8 9 21 -2 21
-17 33 -7 16 14 -13 15 -25 17 -47 8z"/>
<path d="M222 145 c4 -26 68 -34 88 -10 15 19 5 34 -12 17 -16 -16 -51 -15
-67 1 -10 10 -12 8 -9 -8z"/>
<path d="M270 480 c0 -5 11 -10 25 -10 14 0 25 5 25 10 0 6 -11 10 -25 10 -14
0 -25 -4 -25 -10z"/>
<path d="M540 480 c0 -5 11 -10 25 -10 14 0 25 5 25 10 0 6 -11 10 -25 10 -14
0 -25 -4 -25 -10z"/>
</g>
</svg>
