<?xml version="1.0" standalone="no"?>
<!DOCTYPE svg PUBLIC "-//W3C//DTD SVG 20010904//EN"
 "http://www.w3.org/TR/2001/REC-SVG-20010904/DTD/svg10.dtd">
<svg version="1.0" xmlns="http://www.w3.org/2000/svg"
 width="64.000000pt" height="64.000000pt" viewBox="0 0 64.000000 64.000000"
 preserveAspectRatio="xMidYMid meet">

<g transform="translate(0.000000,64.000000) scale(0.100000,-0.100000)"
fill="#fff" stroke="none">
<path d="M36 604 c-23 -23 -23 -245 0 -268 13 -13 46 -16 210 -16 120 0 194 4
194 10 0 6 -77 11 -197 12 l-198 3 0 125 0 125 275 0 275 0 3 -119 c2 -73 -1
-123 -8 -130 -19 -19 -10 -29 10 -11 18 16 20 31 20 136 0 94 -3 121 -16 133
-23 24 -545 24 -568 0z"/>
<path d="M60 470 l0 -80 80 0 80 0 0 80 0 80 -80 0 -80 0 0 -80z m140 0 l0
-60 -60 0 -60 0 0 60 0 60 60 0 60 0 0 -60z"/>
<path d="M152 480 c-7 -11 -18 -17 -27 -14 -20 8 -19 -10 1 -27 17 -14 29 -4
55 44 14 25 -13 23 -29 -3z"/>
<path d="M240 470 l0 -80 80 0 80 0 0 80 0 80 -80 0 -80 0 0 -80z m140 0 l0
-60 -60 0 -60 0 0 60 0 60 60 0 60 0 0 -60z"/>
<path d="M332 480 c-7 -11 -18 -17 -27 -14 -20 8 -19 -10 1 -27 17 -14 29 -4
55 44 14 25 -13 23 -29 -3z"/>
<path d="M420 470 l0 -80 80 0 80 0 0 80 0 80 -80 0 -80 0 0 -80z m140 0 l0
-60 -60 0 -60 0 0 60 0 60 60 0 60 0 0 -60z"/>
<path d="M512 480 c-7 -11 -18 -17 -27 -14 -20 8 -19 -10 1 -27 17 -14 29 -4
55 44 14 25 -13 23 -29 -3z"/>
<path d="M483 334 l-22 -24 24 -24 25 -25 25 24 24 25 -25 25 c-14 14 -26 25
-27 24 -1 -1 -12 -12 -24 -25z m37 -24 c0 -5 -4 -10 -10 -10 -5 0 -10 5 -10
10 0 6 5 10 10 10 6 0 10 -4 10 -10z"/>
<path d="M115 276 c-18 -13 -17 -16 18 -80 30 -54 37 -77 37 -121 0 -30 5 -55
10 -55 6 0 10 25 10 56 0 44 -7 69 -31 115 -41 76 -31 89 11 16 17 -30 37 -58
45 -61 11 -4 12 -11 4 -35 -11 -30 1 -71 21 -71 20 0 32 41 21 71 -8 24 -7 31
4 35 8 3 28 31 45 61 42 73 52 60 11 -16 -24 -46 -31 -71 -31 -115 0 -31 5
-56 10 -56 6 0 10 25 10 55 0 44 7 67 37 121 35 64 36 67 18 80 -26 19 -28 18
-48 -15 -17 -30 -18 -30 -47 -13 -28 16 -32 16 -60 0 -29 -17 -30 -17 -47 13
-20 33 -22 34 -48 15z m138 -43 c-7 -2 -19 -2 -25 0 -7 3 -2 5 12 5 14 0 19
-2 13 -5z m15 -35 c8 -8 9 -15 1 -25 -15 -18 -44 -16 -60 3 -10 13 -10 17 2
25 20 12 43 11 57 -3z m-18 -108 c0 -5 -4 -10 -10 -10 -5 0 -10 5 -10 10 0 6
5 10 10 10 6 0 10 -4 10 -10z"/>
<path d="M410 210 c0 -5 -9 -10 -20 -10 -11 0 -23 -8 -26 -17 -3 -10 -10 -26
-15 -35 -12 -23 -12 -58 1 -58 6 0 10 -9 10 -20 0 -11 8 -23 18 -26 9 -3 25
-10 34 -15 23 -12 58 -12 58 1 0 6 9 10 20 10 11 0 23 8 26 17 3 10 10 26 15
35 12 23 12 58 -1 58 -5 0 -10 9 -10 20 0 11 -8 23 -17 26 -10 3 -26 10 -35
15 -23 12 -58 12 -58 -1z m46 -25 c8 -8 22 -11 31 -8 12 5 15 2 10 -10 -3 -9
1 -23 9 -32 14 -13 14 -17 0 -30 -8 -9 -12 -23 -9 -32 5 -12 2 -15 -10 -10 -9
3 -23 -1 -32 -9 -13 -14 -17 -14 -30 0 -9 8 -23 12 -32 9 -12 -5 -15 -2 -10
10 3 9 -1 23 -9 32 -14 13 -14 17 0 30 8 9 12 23 9 32 -5 12 -2 15 10 10 9 -3
22 0 29 8 16 18 16 18 34 0z"/>
<path d="M410 145 c-26 -32 13 -81 48 -59 9 6 18 19 20 28 8 38 -43 61 -68 31z
m46 -16 c10 -17 -13 -36 -27 -22 -12 12 -4 33 11 33 5 0 12 -5 16 -11z"/>
</g>
</svg>
