<?xml version="1.0" standalone="no"?>
<!DOCTYPE svg PUBLIC "-//W3C//DTD SVG 20010904//EN"
 "http://www.w3.org/TR/2001/REC-SVG-20010904/DTD/svg10.dtd">
<svg version="1.0" xmlns="http://www.w3.org/2000/svg"
 width="64.000000pt" height="64.000000pt" viewBox="0 0 64.000000 64.000000"
 preserveAspectRatio="xMidYMid meet">

<g transform="translate(0.000000,64.000000) scale(0.100000,-0.100000)"
fill="#fff" stroke="none">
<path d="M488 589 c-33 -19 -15 -89 22 -89 38 0 55 71 21 90 -23 12 -22 12
-43 -1z m37 -39 c0 -13 -6 -25 -12 -27 -16 -6 -27 21 -19 43 9 23 31 11 31
-16z"/>
<path d="M275 540 c17 -19 17 -20 -11 -30 -76 -27 -139 -95 -132 -141 4 -22 6
-20 21 16 27 61 59 89 125 110 23 7 23 7 7 -19 -21 -32 -6 -34 23 -3 28 29 28
38 -1 65 -30 29 -58 30 -32 2z"/>
<path d="M446 459 c-17 -14 -26 -30 -26 -50 l0 -29 90 0 90 0 0 29 c0 63 -97
95 -154 50z m116 -16 c36 -32 23 -43 -52 -43 -74 0 -84 8 -53 42 20 23 80 24
105 1z"/>
<path d="M234 377 c-3 -8 -4 -39 -2 -68 l3 -54 85 0 85 0 0 65 0 65 -83 3
c-64 2 -84 0 -88 -11z m156 -57 l0 -50 -70 0 -70 0 0 50 0 50 70 0 70 0 0 -50z"/>
<path d="M270 340 c0 -5 14 -10 30 -10 17 0 30 5 30 10 0 6 -13 10 -30 10 -16
0 -30 -4 -30 -10z"/>
<path d="M270 300 c0 -5 23 -10 50 -10 28 0 50 5 50 10 0 6 -22 10 -50 10 -27
0 -50 -4 -50 -10z"/>
<path d="M485 253 c-25 -59 -58 -87 -123 -108 -23 -7 -23 -7 -7 19 21 32 6 34
-23 3 -28 -29 -28 -38 1 -65 30 -29 58 -30 32 -2 -17 19 -17 20 11 30 76 27
118 70 130 128 9 43 -2 40 -21 -5z"/>
<path d="M108 249 c-33 -19 -15 -89 22 -89 38 0 55 71 21 90 -23 12 -22 12
-43 -1z m37 -39 c0 -27 -22 -39 -31 -16 -8 22 3 49 19 43 6 -2 12 -14 12 -27z"/>
<path d="M66 119 c-17 -14 -26 -30 -26 -50 l0 -29 90 0 90 0 0 29 c0 63 -97
95 -154 50z m116 -16 c36 -32 23 -43 -52 -43 -74 0 -84 8 -53 42 20 23 80 24
105 1z"/>
</g>
</svg>
