<?xml version="1.0" standalone="no"?>
<!DOCTYPE svg PUBLIC "-//W3C//DTD SVG 20010904//EN"
 "http://www.w3.org/TR/2001/REC-SVG-20010904/DTD/svg10.dtd">
<svg version="1.0" xmlns="http://www.w3.org/2000/svg"
 width="64.000000pt" height="64.000000pt" viewBox="0 0 64.000000 64.000000"
 preserveAspectRatio="xMidYMid meet">

<g transform="translate(0.000000,64.000000) scale(0.100000,-0.100000)"
fill="#fff" stroke="none">
<path d="M235 617 c-22 -8 -53 -21 -70 -30 -213 -117 -208 -443 8 -553 53 -27
67 -25 67 12 0 20 -5 24 -31 24 -22 0 -39 9 -60 33 -16 17 -38 41 -49 53 -45
48 -2 47 51 -1 43 -39 60 -43 83 -19 24 23 20 30 -23 43 -74 22 -115 105 -90
181 6 19 14 58 18 85 5 42 10 51 28 53 12 2 32 -2 45 -9 30 -16 186 -16 216 0
13 7 33 11 45 9 18 -2 23 -11 28 -53 4 -27 12 -66 18 -85 25 -75 -16 -159 -88
-181 l-37 -11 4 -71 c2 -40 8 -76 12 -80 11 -12 100 36 137 75 102 106 113
291 26 407 -39 51 -61 69 -122 98 -64 30 -158 39 -216 20z"/>
</g>
</svg>
