<?xml version="1.0" standalone="no"?>
<!DOCTYPE svg PUBLIC "-//W3C//DTD SVG 20010904//EN"
 "http://www.w3.org/TR/2001/REC-SVG-20010904/DTD/svg10.dtd">
<svg version="1.0" xmlns="http://www.w3.org/2000/svg"
 width="64.000000pt" height="64.000000pt" viewBox="0 0 64.000000 64.000000"
 preserveAspectRatio="xMidYMid meet">

<g transform="translate(0.000000,64.000000) scale(0.100000,-0.100000)"
fill="#fff" stroke="none">
<path d="M155 520 c-82 -32 -151 -63 -153 -68 -1 -5 20 -18 47 -30 l50 -21 3
-86 3 -87 105 -42 105 -42 50 22 c28 13 53 23 57 23 3 1 0 -25 -7 -56 -8 -32
-10 -62 -6 -66 11 -11 92 13 98 29 3 7 -9 33 -26 58 l-31 45 43 23 42 23 3 77
3 77 37 12 c45 14 66 29 55 40 -8 8 -311 129 -322 129 -3 -1 -73 -27 -156 -60z
m295 -22 c148 -57 147 -56 30 -93 l-55 -17 -54 36 c-29 20 -59 36 -67 36 -28
0 -13 -19 36 -46 28 -15 50 -31 50 -35 0 -4 -16 -13 -35 -19 -33 -11 -47 -8
-165 37 -71 26 -130 50 -130 53 0 6 228 97 247 99 6 1 71 -22 143 -51z m-217
-145 l67 -25 0 -74 c0 -41 -3 -74 -7 -73 -5 0 -42 15 -83 32 l-75 33 -3 73
c-3 67 -1 73 15 66 10 -4 48 -18 86 -32z m277 -28 c0 -60 -2 -66 -25 -77 -14
-6 -27 -9 -29 -7 -2 2 -6 30 -10 61 l-6 58 32 14 c18 8 34 15 36 15 1 1 2 -28
2 -64z m-97 8 c15 -53 17 -111 5 -116 -7 -3 -30 -12 -50 -21 l-38 -16 0 70 c0
70 0 71 33 85 42 18 45 18 50 -2z m55 -216 c2 -10 -3 -17 -12 -17 -10 0 -16 9
-16 21 0 24 23 21 28 -4z"/>
</g>
</svg>
