<?xml version="1.0" standalone="no"?>
<!DOCTYPE svg PUBLIC "-//W3C//DTD SVG 20010904//EN"
 "http://www.w3.org/TR/2001/REC-SVG-20010904/DTD/svg10.dtd">
<svg version="1.0" xmlns="http://www.w3.org/2000/svg"
 width="64.000000pt" height="64.000000pt" viewBox="0 0 64.000000 64.000000"
 preserveAspectRatio="xMidYMid meet">

<g transform="translate(0.000000,64.000000) scale(0.100000,-0.100000)"
fill="#fff" stroke="none">
<path d="M190 590 c-11 -11 -20 -33 -20 -50 l0 -29 -82 -3 -83 -3 -3 -134 c-2
-83 1 -138 8 -145 5 -5 10 -46 10 -91 0 -50 5 -86 12 -93 17 -17 559 -17 576
0 7 7 12 43 12 93 0 45 5 86 10 91 7 7 10 62 8 145 l-3 134 -82 3 -83 3 0 29
c0 58 -26 70 -150 70 -97 0 -112 -2 -130 -20z m241 -10 c20 -11 28 -70 9 -70
-5 0 -10 11 -10 24 0 31 -15 36 -110 36 -95 0 -110 -5 -110 -36 0 -13 -4 -24
-10 -24 -17 0 -11 58 8 69 22 14 198 14 223 1z m-23 -52 c-3 -9 -30 -13 -88
-13 -58 0 -85 4 -87 13 -4 9 18 12 87 12 69 0 91 -3 88 -12z m210 -165 l-3
-128 -70 -11 c-145 -24 -185 -26 -185 -10 0 23 -36 39 -60 26 -11 -6 -20 -18
-20 -26 0 -16 -40 -14 -185 10 l-70 11 -3 128 -3 127 301 0 301 0 -3 -127z
m-278 -183 c0 -33 -3 -40 -20 -40 -17 0 -20 7 -20 40 0 33 3 40 20 40 17 0 20
-7 20 -40z m-158 10 c94 -12 97 -13 100 -39 3 -23 8 -26 38 -26 30 0 35 3 38
26 3 26 6 27 100 39 53 6 107 14 120 17 23 5 23 4 20 -73 l-3 -79 -275 0 -275
0 -3 79 c-3 77 -3 78 20 73 13 -3 67 -11 120 -17z"/>
</g>
</svg>
