<?xml version="1.0" standalone="no"?>
<!DOCTYPE svg PUBLIC "-//W3C//DTD SVG 20010904//EN"
 "http://www.w3.org/TR/2001/REC-SVG-20010904/DTD/svg10.dtd">
<svg version="1.0" xmlns="http://www.w3.org/2000/svg"
 width="64.000000pt" height="64.000000pt" viewBox="0 0 64.000000 64.000000"
 preserveAspectRatio="xMidYMid meet">

<g transform="translate(0.000000,64.000000) scale(0.100000,-0.100000)"
fill="#fff" stroke="none">
<path d="M7 553 c-4 -3 -7 -105 -7 -225 l0 -218 189 0 c166 0 190 -2 195 -16
6 -16 8 -16 24 0 24 21 80 21 104 0 16 -16 18 -16 24 0 4 12 19 16 55 16 l49
0 -2 223 -3 222 -311 3 c-171 1 -313 -1 -317 -5z m598 -23 c-8 -14 -562 -14
-570 0 -4 7 93 10 285 10 192 0 289 -3 285 -10z m-567 -192 c2 -147 0 -177
-13 -188 -13 -11 -15 9 -15 180 0 149 3 191 13 188 9 -4 13 -51 15 -180z m592
-9 c0 -169 -2 -190 -15 -179 -12 10 -15 44 -15 185 0 94 3 175 7 178 19 20 23
-10 23 -184z m-40 7 c0 -106 -4 -167 -11 -171 -17 -11 -49 26 -49 55 0 41 -31
73 -70 73 -39 0 -70 -32 -70 -73 0 -54 -21 -61 -186 -58 l-149 3 -3 168 -2
167 270 0 270 0 0 -164z m-90 -76 c11 -11 20 -29 20 -40 0 -11 -9 -29 -20 -40
-11 -11 -29 -20 -40 -20 -26 0 -60 34 -60 60 0 11 9 29 20 40 11 11 29 20 40
20 11 0 29 -9 40 -20z m-78 -104 c17 -12 17 -14 0 -29 -17 -15 -19 -15 -34 2
-12 14 -13 22 -5 30 14 14 18 14 39 -3z m115 3 c8 -8 7 -16 -5 -30 -15 -17
-17 -17 -34 -2 -17 15 -17 17 0 29 21 17 25 17 39 3z m-193 -24 c5 -13 -17
-15 -156 -15 -141 0 -159 2 -148 15 10 12 41 15 155 15 118 0 144 -3 149 -15z
m256 0 c10 -13 9 -15 -8 -15 -15 0 -20 5 -16 15 4 8 7 15 9 15 1 0 8 -7 15
-15z m-125 -5 c3 -5 -3 -10 -15 -10 -12 0 -18 5 -15 10 3 6 10 10 15 10 5 0
12 -4 15 -10z"/>
<path d="M65 480 c-3 -5 -1 -10 4 -10 6 0 11 5 11 10 0 6 -2 10 -4 10 -3 0 -8
-4 -11 -10z"/>
<path d="M302 470 c0 -14 2 -19 5 -12 2 6 2 18 0 25 -3 6 -5 1 -5 -13z"/>
<path d="M332 470 c0 -14 2 -19 5 -12 2 6 2 18 0 25 -3 6 -5 1 -5 -13z"/>
<path d="M230 470 c0 -5 11 -10 25 -10 14 0 25 5 25 10 0 6 -11 10 -25 10 -14
0 -25 -4 -25 -10z"/>
<path d="M360 470 c0 -5 11 -10 25 -10 14 0 25 5 25 10 0 6 -11 10 -25 10 -14
0 -25 -4 -25 -10z"/>
<path d="M60 420 c0 -16 5 -30 10 -30 6 0 10 14 10 30 0 17 -4 30 -10 30 -5 0
-10 -13 -10 -30z"/>
<path d="M130 420 c0 -6 70 -10 190 -10 120 0 190 4 190 10 0 6 -70 10 -190
10 -120 0 -190 -4 -190 -10z"/>
<path d="M222 383 c54 -2 142 -2 196 0 53 1 9 3 -98 3 -107 0 -151 -2 -98 -3z"/>
<path d="M222 353 c54 -2 142 -2 196 0 53 1 9 3 -98 3 -107 0 -151 -2 -98 -3z"/>
<path d="M222 323 c54 -2 142 -2 196 0 53 1 9 3 -98 3 -107 0 -151 -2 -98 -3z"/>
<path d="M560 290 c0 -5 5 -10 10 -10 6 0 10 5 10 10 0 6 -4 10 -10 10 -5 0
-10 -4 -10 -10z"/>
<path d="M560 220 c0 -22 5 -40 10 -40 6 0 10 18 10 40 0 22 -4 40 -10 40 -5
0 -10 -18 -10 -40z"/>
<path d="M135 240 c8 -13 162 -13 170 0 4 6 -27 10 -85 10 -58 0 -89 -4 -85
-10z"/>
<path d="M158 213 c18 -2 45 -2 60 0 15 2 0 4 -33 4 -33 0 -45 -2 -27 -4z"/>
<path d="M424 246 c-3 -8 -4 -25 -2 -38 2 -19 9 -23 38 -23 33 0 35 2 35 35 0
32 -3 35 -33 38 -21 2 -34 -2 -38 -12z m56 -12 c11 -12 10 -18 -3 -32 -16 -15
-18 -15 -34 0 -13 14 -14 20 -3 32 7 9 16 16 20 16 4 0 13 -7 20 -16z"/>
</g>
</svg>
