<?xml version="1.0" standalone="no"?>
<!DOCTYPE svg PUBLIC "-//W3C//DTD SVG 20010904//EN"
 "http://www.w3.org/TR/2001/REC-SVG-20010904/DTD/svg10.dtd">
<svg version="1.0" xmlns="http://www.w3.org/2000/svg"
 width="64.000000pt" height="64.000000pt" viewBox="0 0 64.000000 64.000000"
 preserveAspectRatio="xMidYMid meet">

<g transform="translate(0.000000,64.000000) scale(0.100000,-0.100000)"
fill="#fff" stroke="none">
<path d="M33 630 c-32 -13 -35 -43 -31 -337 2 -198 6 -265 16 -275 19 -19 585
-19 604 0 19 19 19 585 0 604 -16 16 -553 23 -589 8z m159 -77 c25 -30 29 -53
13 -83 -27 -53 -97 -52 -119 2 -8 17 -11 39 -8 50 11 44 85 64 114 31z m6
-316 l2 -168 -52 3 -53 3 -3 155 c-1 85 0 160 3 168 3 9 19 12 52 10 l48 -3 3
-168z m149 153 c5 -20 5 -20 30 0 32 25 109 27 141 4 44 -30 55 -70 56 -199
l1 -120 -55 0 -55 0 -5 108 c-4 89 -8 111 -23 122 -21 15 -51 10 -69 -12 -8
-10 -14 -56 -16 -120 l-4 -104 -52 3 -51 3 -3 155 c-1 85 0 160 2 167 3 8 23
13 52 13 37 0 47 -4 51 -20z"/>
</g>
</svg>
